<?xml version="1.0" encoding="utf-8"?>
<!-- Generator: Adobe Illustrator 24.0.1, SVG Export Plug-In . SVG Version: 6.00 Build 0)  -->
<svg version="1.1" id="Capa_1" xmlns="http://www.w3.org/2000/svg" xmlns:xlink="http://www.w3.org/1999/xlink" x="0px" y="0px"
	 viewBox="0 0 512 512" style="enable-background:new 0 0 512 512;" xml:space="preserve">
<style type="text/css">
	.st0{fill:#FFFFFF;}
</style>
<g>
	<g id="Page-1">
		<g id="_x30_15---Email" transform="translate(0 -1)">
			<path id="Shape" class="st0" d="M266.6,291c-19.1-0.1-38.1-3.1-56.4-8.9c-29.1-9.7-50.8-34.4-56.6-64.5
				c-6.4-30.9,5.3-63.7,32.1-89.8c2.9-2.8,5.9-5.5,9-8.1c27.5-23,64.5-31,99-21.4c33.4,10.7,56.5,41.2,57.7,76.3
				c1.3,20.2-5.3,40.1-18.4,55.5c-10.1,12.7-26.3,18.6-42.2,15.5c-6.5-1.3-12.1-5.3-15.7-10.9c-3.2-5.4-4-11.9-2.2-18
				c7.5-28.2,15-71.1,15.1-71.5c0.5-3,2.6-5.5,5.5-6.5s6.1-0.5,8.4,1.5s3.4,5,2.9,8c-0.3,1.8-7.8,44-15.4,72.9
				c-0.5,1.6-0.4,3.4,0.4,4.9c1.2,1.6,3,2.7,4.9,3c9.7,1.6,19.5-2.3,25.5-10.1c10.1-12.1,15.2-27.7,14.2-43.4
				c-0.8-27.9-19.1-52.3-45.7-60.8c-29-8-60.1-1.2-83.1,18.2c-2.7,2.3-5.4,4.7-8,7.2c-13.3,12.9-34.4,39.7-27.3,74.1
				c4.8,24,22,43.7,45.1,51.8c40,12.8,97.5,14.3,127.8-23.4c3-3.6,8.3-4.1,11.9-1.2c3.6,2.9,4.3,8.2,1.4,11.9
				C334.1,281.1,300,291,266.6,291L266.6,291z"/>
			<path id="Shape_1_" class="st0" d="M237.4,246.8c-9,0.2-17.8-2.8-24.9-8.4c-16.4-13.1-16.8-35.9-12.2-51.4
				c1.5-5.2,3.6-10.2,6.2-14.9c6.4-12.9,16.6-23.5,29.3-30.4c15.8-8.2,35.1-5.1,47.5,7.6c6.2,6.7,10.8,14.7,13.6,23.4
				c1.5,4.4-0.8,9.2-5.2,10.8c-4.4,1.6-9.2-0.7-10.9-5c-2-6.4-5.4-12.3-9.9-17.4c-7.2-7.4-18.5-9.1-27.6-4.1
				c-9.5,5.4-17.1,13.5-21.9,23.3c-2,3.7-3.6,7.6-4.8,11.6c-3.3,11.2-2.6,25.9,6.6,33.2c10,8,26.9,4.6,36.4-3.6
				c7.1-6.4,13.2-13.8,18-21.9c1.6-2.6,4.5-4.2,7.6-4.2c3.1,0.1,5.9,1.8,7.3,4.5c1.4,2.7,1.3,6-0.4,8.6c-5.8,9.6-13,18.3-21.4,25.8
				C261.3,242.3,249.6,246.7,237.4,246.8L237.4,246.8z"/>
			<path id="Shape_2_" class="st0" d="M486.4,513H25.6C11.5,513,0,501.5,0,487.4V171.7c0-3.3,1.9-6.3,4.9-7.7c3-1.4,6.5-1,9.1,1.2
				l209.4,174c18.9,15.6,46.3,15.6,65.3,0l209.4-174c2.5-2.1,6.1-2.6,9.1-1.2c3,1.4,4.9,4.4,4.9,7.7v315.7
				C512,501.5,500.5,513,486.4,513z M17.1,189.9v297.5c0,4.7,3.8,8.5,8.5,8.5h460.8c4.7,0,8.5-3.8,8.5-8.5V189.9L299.5,352.2
				c-25.3,20.9-61.8,20.9-87.1,0L17.1,189.9z"/>
			<path id="Shape_3_" class="st0" d="M8.5,180.2c-3.7,0-7-2.4-8.1-5.9c-1.1-3.5,0.2-7.4,3.2-9.6l76.8-54.4
				c3.8-2.7,9.1-1.7,11.8,2.1c2.7,3.8,1.8,9.1-2,11.8l-76.8,54.4C12,179.7,10.3,180.2,8.5,180.2L8.5,180.2z"/>
			<path id="Shape_4_" class="st0" d="M503.5,180.2c-1.8,0-3.5-0.5-4.9-1.6l-76.8-54.4c-3.8-2.7-4.7-8-2-11.8
				c2.7-3.8,8-4.7,11.8-2.1l76.8,54.4c3,2.1,4.3,6,3.2,9.6S507.2,180.2,503.5,180.2L503.5,180.2z"/>
			<path id="Shape_5_" class="st0" d="M334.8,60.7c-1.8,0-3.5-0.5-4.9-1.6l-40.8-28.9c-18.9-16-46.6-16.2-65.7-0.4l-41.3,29.3
				c-2.5,1.8-5.7,2.1-8.5,0.8c-2.8-1.3-4.7-3.9-4.9-7s1.1-6,3.6-7.8L213,16.3c25.2-20.6,61.5-20.4,86.5,0.4l40.3,28.5
				c3,2.1,4.3,6,3.2,9.6C341.9,58.3,338.6,60.7,334.8,60.7z"/>
			<path id="Shape_6_" class="st0" d="M14.1,508.4c-3.6,0-6.8-2.2-8-5.6c-1.2-3.4-0.2-7.2,2.6-9.5l194.7-161.8
				c2.3-2,5.6-2.6,8.5-1.5s5,3.6,5.5,6.6s-0.7,6.1-3,8L19.5,506.4C18,507.7,16.1,508.4,14.1,508.4L14.1,508.4z"/>
			<path id="Shape_7_" class="st0" d="M497.9,508.4c-2,0-3.9-0.7-5.4-2L297.7,344.6c-2.4-1.9-3.5-5-3-8s2.6-5.6,5.5-6.6
				c2.9-1.1,6.1-0.5,8.5,1.5l194.7,161.8c2.8,2.3,3.8,6.1,2.6,9.5C504.7,506.1,501.5,508.4,497.9,508.4L497.9,508.4z"/>
			<path id="Shape_8_" class="st0" d="M426.7,244c-4.7,0-8.5-3.8-8.5-8.5V60.8c0,0.2-0.4-0.1-0.9-0.1H94.8c-0.4,0-0.7,0.1-1,0.4
				l0.1,174.4c0,4.7-3.8,8.5-8.5,8.5s-8.5-3.8-8.5-8.5V60.7c0.3-9.7,8.3-17.3,18-17.1h322.4c9.7-0.2,17.7,7.4,18,17.1v174.8
				C435.2,240.2,431.4,244,426.7,244z"/>
		</g>
	</g>
</g>
</svg>
